<svg xmlns="http://www.w3.org/2000/svg" xmlns:xlink="http://www.w3.org/1999/xlink" version="1.1" x="0px" y="0px" viewBox="0 0 32 40" enable-background="new 0 0 32 32" xml:space="preserve"><g display="none"><g display="inline"><polygon fill="#005EA5" points="22.556,0 29.245,6.689 29.245,32 5.08,32 5.08,0   "/><polygon fill="#005EA5" points="29.245,6.689 22.555,6.689 22.555,0   "/><g><rect x="2.755" y="18.313" fill="#005EA5" width="24.093" height="8.118"/><polygon fill="#005EA5" points="5.08,28.755 5.08,26.431 2.755,26.431    "/></g></g><text transform="matrix(1 0 0 1 8.625 24.8354)" display="inline" fill="#005EA5" font-family="'EurostileBold'" font-size="7.3853px">PDF</text></g><g display="none"><text transform="matrix(1 0 0 1 9.4583 24.8354)" display="inline" fill="#005EA5" font-family="'EurostileBold'" font-size="7.3853px">PDF</text></g><g display="none"><g display="inline"><polygon fill="#005EA5" points="22.556,0 29.245,6.689 29.245,32 5.08,32 5.08,0   "/><polygon fill="#005EA5" points="29.245,6.689 22.555,6.689 22.555,0   "/><g><polygon fill="#005EA5" points="26.848,26.431 2.755,26.431 2.755,18.313 32,18.313    "/><polygon fill="#005EA5" points="5.08,28.755 5.08,26.431 2.755,26.431    "/></g></g><text transform="matrix(1 0 0 1 10.0278 24.7163)" display="inline" fill="#005EA5" font-family="'EurostileBold'" font-size="7px">PDF</text></g><g display="none"><g display="inline"><circle fill="#005EA5" cx="16" cy="16" r="16"/><g><defs><circle id="f" cx="16" cy="16" r="16"/></defs><clipPath id="e"><use xlink:href="#f" overflow="visible"/></clipPath><polygon clip-path="url(#e)" fill="#005EA5" points="23.417,10.181 33.884,20.648 33.884,32.886 16.216,33.948 8.268,26         "/></g></g><g display="inline"><g><polygon fill="#005EA5" points="19.237,6 23.417,10.181 23.417,26 8.314,26 8.314,6    "/><polygon fill="#005EA5" points="23.417,10.181 19.236,10.181 19.236,6    "/><g><polygon fill="#005EA5" points="21.919,22.519 6.861,22.519 6.861,17.446 25.139,17.446     "/><polygon fill="#005EA5" points="8.314,23.972 8.314,22.519 6.861,22.519     "/></g></g><text transform="matrix(1 0 0 1 11.4066 21.4482)" fill="#005EA5" font-family="'EurostileBold'" font-size="4.375px">PDF</text></g></g><g display="none"><g display="inline"><circle fill="#005EA5" cx="16" cy="16" r="16"/></g><g display="inline"><g><path fill="#005EA5" d="M12.02,21.522v-3.076h1.24h0.153c0.416,0,0.697,0.072,0.842,0.217c0.145,0.145,0.217,0.425,0.217,0.839     c0,0.412-0.069,0.685-0.207,0.821c-0.138,0.135-0.418,0.203-0.838,0.203l-0.135,0.002h-0.688v0.994H12.02z M12.603,20.037h0.665     c0.264,0,0.432-0.031,0.504-0.092s0.107-0.204,0.107-0.432c0-0.26-0.03-0.421-0.089-0.483c-0.059-0.062-0.214-0.093-0.463-0.093     h-0.724V20.037z"/><path fill="#005EA5" d="M14.844,21.522v-3.076h1.512c0.43,0,0.731,0.093,0.903,0.281c0.172,0.188,0.258,0.517,0.258,0.987     c0,0.768-0.07,1.262-0.208,1.48s-0.45,0.328-0.935,0.328H14.844z M15.427,21.031h0.832c0.28,0,0.46-0.064,0.542-0.193     c0.082-0.128,0.123-0.412,0.123-0.851c0-0.453-0.037-0.742-0.11-0.865s-0.247-0.184-0.518-0.184h-0.868V21.031z"/><path fill="#005EA5" d="M18.527,18.937v0.829h1.379v0.491h-1.379v1.265h-0.583v-3.076h2.037v0.491H18.527z"/></g></g></g><g display="none"><g display="inline"><circle fill="#005EA5" cx="16" cy="16" r="16"/></g><g display="inline"><g><g><g><path fill="#005EA5" d="M22.302,6H9.698c-0.688,0-1.25,0.562-1.25,1.25v17.5c0,0.688,0.562,1.25,1.25,1.25h12.603       c0.687,0,1.25-0.562,1.25-1.25V7.25C23.552,6.562,22.989,6,22.302,6L22.302,6z"/></g></g></g><g><g><g><rect x="8.448" y="17.446" fill="#005EA5" width="15.103" height="5.074"/></g></g></g></g><g display="inline"><g><path fill="#005EA5" d="M12.02,21.522v-3.076h1.24h0.153c0.416,0,0.697,0.072,0.842,0.217c0.145,0.145,0.217,0.425,0.217,0.839     c0,0.412-0.069,0.685-0.207,0.821c-0.138,0.135-0.418,0.203-0.838,0.203l-0.135,0.002h-0.688v0.994H12.02z M12.603,20.037h0.665     c0.264,0,0.432-0.031,0.504-0.092s0.107-0.204,0.107-0.432c0-0.26-0.03-0.421-0.089-0.483c-0.059-0.062-0.214-0.093-0.463-0.093     h-0.724V20.037z"/><path fill="#005EA5" d="M14.844,21.522v-3.076h1.512c0.43,0,0.731,0.093,0.903,0.281c0.172,0.188,0.258,0.517,0.258,0.987     c0,0.768-0.07,1.262-0.208,1.48s-0.45,0.328-0.935,0.328H14.844z M15.427,21.031h0.832c0.28,0,0.46-0.064,0.542-0.193     c0.082-0.128,0.123-0.412,0.123-0.851c0-0.453-0.037-0.742-0.11-0.865s-0.247-0.184-0.518-0.184h-0.868V21.031z"/><path fill="#005EA5" d="M18.527,18.937v0.829h1.379v0.491h-1.379v1.265h-0.583v-3.076h2.037v0.491H18.527z"/></g></g></g><g display="none"><g display="inline"><path fill="#005EA5" d="M26.083,32H5.918c-1.1,0-2-0.9-2-2V2c0-1.1,0.9-2,2-2h20.165c1.1,0,2,0.9,2,2v28    C28.083,31.1,27.183,32,26.083,32z"/><g><g><defs><polygon id="d" points="21.394,0 28.082,6.689 28.082,32 3.918,32 3.918,0      "/></defs><clipPath id="c"><use xlink:href="#d" overflow="visible"/></clipPath><g clip-path="url(#c)"><rect x="3.493" y="17.745" fill="#005EA5" width="25.02" height="9.338"/><g><rect x="3.487" y="17.432" fill="#005EA5" width="25.026" height="0.5"/></g><g><rect x="3.487" y="26.833" fill="#005EA5" width="25.026" height="0.5"/></g></g></g></g><g><defs><path id="b" d="M26.083,32H5.918c-1.1,0-2-0.9-2-2V2c0-1.1,0.9-2,2-2h20.165c1.1,0,2,0.9,2,2v28      C28.083,31.1,27.183,32,26.083,32z"/></defs><clipPath id="a"><use xlink:href="#b" overflow="visible"/></clipPath><polyline clip-path="url(#a)" fill="#005EA5" points="21.344,-0.234 28.406,-0.234 28.406,6.828    "/></g><polygon fill="#005EA5" points="21.021,0 28.083,7.061 28.083,6.354 21.729,0   "/></g><path display="inline" fill="#005EA5" d="M9.631,24.835v-4.922h1.983h0.245c0.666,0,1.115,0.115,1.347,0.348   c0.232,0.231,0.348,0.68,0.348,1.343c0,0.659-0.11,1.097-0.332,1.313c-0.221,0.216-0.668,0.324-1.341,0.324l-0.216,0.004h-1.1v1.59   H9.631z M10.565,22.459h1.064c0.423,0,0.691-0.049,0.806-0.146s0.171-0.327,0.171-0.69c0-0.416-0.047-0.674-0.143-0.773   c-0.095-0.1-0.342-0.149-0.741-0.149h-1.158V22.459z"/><path display="inline" fill="#005EA5" d="M14.15,24.835v-4.922h2.42c0.688,0,1.169,0.149,1.444,0.45   c0.274,0.301,0.413,0.827,0.413,1.579c0,1.229-0.111,2.019-0.332,2.368s-0.72,0.524-1.497,0.524H14.15z M15.084,24.049h1.331   c0.447,0,0.736-0.103,0.867-0.309c0.131-0.205,0.197-0.659,0.197-1.361c0-0.726-0.059-1.188-0.177-1.385s-0.395-0.295-0.83-0.295   h-1.388V24.049z"/><path display="inline" fill="#005EA5" d="M20.042,20.699v1.326h2.207v0.786h-2.207v2.023h-0.934v-4.922h3.26v0.786H20.042z"/></g><g display="none"><path display="inline" d="M22.556,0H5.08v17.313H2.755v9.118h0l2.324,2.324v-2.324h0V32h24.165V6.689L22.556,0z M26.83,6.189   h-3.776V2.414L26.83,6.189z M3.755,18.313h22.093v7.118H3.755V18.313z M28.245,31H6.08v-4.569h20.768v-9.118H6.08V1h15.974v6.189   h6.19V31z"/><text transform="matrix(1 0 0 1 8.625 24.2963)" display="inline" font-family="'EurostileBold'" font-size="7.3853px">PDF</text></g><g><path d="M5.022,28.844V32h24.279V6.731L22.573,0H5.022v16.958H2.698v9.576l2.317,2.317L5.022,28.844z M22.652,0.786l6.026,6.028   h-6.026V0.786z M5.522,0.5h16.63v6.814h6.649V31.5H5.522v-4.819H27.29v-9.723H5.522V0.5z M3.198,17.458H26.79v8.723H3.198V17.458z    M5.022,26.681v1.472l-1.471-1.472H5.022z"/><path d="M11.286,19.374h-0.245H9.058v4.922h0.934v-1.59h1.1l0.216-0.004c0.673,0,1.12-0.108,1.341-0.324   c0.221-0.217,0.332-0.654,0.332-1.313c0-0.663-0.116-1.111-0.348-1.343C12.401,19.489,11.952,19.374,11.286,19.374z M11.861,21.773   c-0.114,0.098-0.383,0.146-0.806,0.146H9.992v-1.76h1.158c0.399,0,0.646,0.05,0.741,0.149c0.095,0.1,0.143,0.357,0.143,0.773   C12.033,21.446,11.976,21.676,11.861,21.773z"/><path d="M15.996,19.374h-2.42v4.922h2.449c0.776,0,1.276-0.175,1.497-0.524s0.332-1.14,0.332-2.368   c0-0.752-0.139-1.278-0.413-1.579C17.165,19.523,16.684,19.374,15.996,19.374z M16.708,23.201c-0.131,0.206-0.42,0.309-0.867,0.309   H14.51v-3.35h1.388c0.435,0,0.712,0.098,0.83,0.295s0.177,0.659,0.177,1.385C16.905,22.542,16.839,22.996,16.708,23.201z"/><polygon points="18.535,24.296 19.469,24.296 19.469,22.272 21.676,22.272 21.676,21.486 19.469,21.486 19.469,20.16 21.795,20.16    21.795,19.374 18.535,19.374  "/></g><g display="none"><path display="inline" d="M22.556,0H5.08v17.313H2.755v9.118h0l2.324,2.324v-2.324h0V32h24.165V6.689L22.556,0z M26.83,6.189   h-3.776V2.414L26.83,6.189z M3.755,18.313h22.093v7.118H3.755V18.313z"/><text transform="matrix(1 0 0 1 8.625 24.2963)" display="inline" font-family="'EurostileBold'" font-size="7.3853px">PDF</text></g><text x="0" y="47" fill="#005EA5" font-size="5px" font-weight="bold" font-family="'Helvetica Neue', Helvetica, Arial-Unicode, Arial, Sans-serif">Created by Alfredo @ IconsAlfredo.com</text><text x="0" y="52" fill="#005EA5" font-size="5px" font-weight="bold" font-family="'Helvetica Neue', Helvetica, Arial-Unicode, Arial, Sans-serif">from the Noun Project</text></svg>
