<svg xmlns="http://www.w3.org/2000/svg" viewBox="0 0 32 40"><path d="M5.022 28.844V32h24.279V6.731L22.573 0H5.022v16.958H2.698v9.576l2.317 2.317.007-.007zM22.652.786l6.026 6.028h-6.026V.786zM5.522.5h16.63v6.814h6.649V31.5H5.522v-4.819H27.29v-9.723H5.522V.5zM3.198 17.458H26.79v8.723H3.198v-8.723zm1.824 9.223v1.472l-1.471-1.472h1.471z"/><path d="M11.286 19.374H9.058v4.922h.934v-1.59h1.1l.216-.004c.673 0 1.12-.108 1.341-.324.221-.217.332-.654.332-1.313 0-.663-.116-1.111-.348-1.343-.232-.233-.681-.348-1.347-.348zm.575 2.399c-.114.098-.383.146-.806.146H9.992v-1.76h1.158c.399 0 .646.05.741.149.095.1.143.357.143.773-.001.365-.058.595-.173.692zm4.135-2.399h-2.42v4.922h2.449c.776 0 1.276-.175 1.497-.524s.332-1.14.332-2.368c0-.752-.139-1.278-.413-1.579-.276-.302-.757-.451-1.445-.451zm.712 3.827c-.131.206-.42.309-.867.309H14.51v-3.35h1.388c.435 0 .712.098.83.295s.177.659.177 1.385c0 .702-.066 1.156-.197 1.361zm1.827 1.095h.934v-2.024h2.207v-.786h-2.207V20.16h2.326v-.786h-3.26z"/><text y="47" fill="#005EA5" font-size="5" font-weight="bold" font-family="'Helvetica Neue', Helvetica, Arial-Unicode, Arial, Sans-serif">Created by Alfredo @ IconsAlfredo.com</text><text y="52" fill="#005EA5" font-size="5" font-weight="bold" font-family="'Helvetica Neue', Helvetica, Arial-Unicode, Arial, Sans-serif">from the Noun Project</text></svg>